<svg width="30" height="36" fill="none" xmlns="http://www.w3.org/2000/svg"><path d="M25.573 5.122H7.225a2.17 2.17 0 00-2.179 2.163v24.302a2.17 2.17 0 002.179 2.163h18.348a2.17 2.17 0 002.179-2.163V7.285a2.17 2.17 0 00-2.179-2.163z" fill="#D3C9BE"/><path d="M1.49 3.7v27.204c0 .398-.343.74-.745.74a.756.756 0 01-.745-.74V3.699C0 1.65 1.663 0 3.727 0h21.215c.401 0 .745.341.745.74 0 .398-.344.74-.745.74H3.67c-1.204.057-2.18 1.024-2.18 2.22zM29.3 31.586c0 2.049-1.663 3.7-3.727 3.7H7.225c-1.72 0-3.154-1.139-3.555-2.676a.644.644 0 01-.172-.455V7.285c0-2.049 1.662-3.7 3.727-3.7h18.347c2.065 0 3.728 1.651 3.728 3.7v24.302z" fill="#D3C9BE"/><g filter="url(#filter0_i)" fill="#ABA297"><path d="M12.654 14C9.794 14 8 15.925 8 19.003 8 22.082 9.794 24 12.654 24s4.655-1.918 4.655-4.997c0-3.078-1.794-5.003-4.655-5.003zm0 1.476c1.753 0 2.86 1.368 2.86 3.527 0 2.153-1.107 3.521-2.86 3.521s-2.86-1.368-2.86-3.52c0-2.16 1.114-3.529 2.86-3.529zm10.647 8.363H25v-7.11h-6.353v7.11h1.692v-5.822H23.3v5.822z"/></g><defs><filter id="filter0_i" x="8" y="14" width="17" height="11" filterUnits="userSpaceOnUse" color-interpolation-filters="sRGB"><feFlood flood-opacity="0" result="BackgroundImageFix"/><feBlend in="SourceGraphic" in2="BackgroundImageFix" result="shape"/><feColorMatrix in="SourceAlpha" values="0 0 0 0 0 0 0 0 0 0 0 0 0 0 0 0 0 0 127 0" result="hardAlpha"/><feOffset dy="1"/><feGaussianBlur stdDeviation=".5"/><feComposite in2="hardAlpha" operator="arithmetic" k2="-1" k3="1"/><feColorMatrix values="0 0 0 0 0 0 0 0 0 0 0 0 0 0 0 0 0 0 0.25 0"/><feBlend in2="shape" result="effect1_innerShadow"/></filter></defs></svg>