<svg width="19" height="19" fill="none" xmlns="http://www.w3.org/2000/svg"><path fill-rule="evenodd" clip-rule="evenodd" d="M4.689 4.504c-.702 2.176.162 4.891 2.705 6.11l-.023.011-.047.02-.122.04c-3.466 1.089-5.535 3.394-6.196 6.934a.312.312 0 00.246.375.345.345 0 00.395-.248c.022-.067.031-.137.041-.208.006-.04.012-.08.02-.12.783-3.98 4.523-6.965 8.944-6.292 3.36.51 5.53 2.504 6.52 5.729.045.148.074.3.102.452.027.143.054.285.095.424.061.211.255.269.41.237.158-.032.216-.135.22-.31a1.06 1.06 0 00-.018-.256c-.655-3.147-2.488-5.323-5.511-6.509-.186-.073-.377-.131-.574-.192a18.24 18.24 0 01-.283-.089c2.374-1.144 3.376-3.621 2.786-5.875-.545-2.078-2.523-3.654-4.61-3.733-2.447-.093-4.435 1.436-5.1 3.5zm4.503 5.878c-2.21-.141-4.107-2.044-4.068-4.373.007-2.425 1.97-4.355 4.417-4.343 2.425.011 4.34 1.959 4.36 4.38.018 2.234-1.918 4.514-4.71 4.336z" fill="#92B5CC"/><path d="M7.394 10.615l.196.46 1.018-.433-.997-.478-.217.45zM4.69 4.505l.476.153-.476-.154zm2.682 6.12l-.202-.457.202.457zm-.047.02l.167.47-.167-.47zm-.122.04l-.15-.477.15.477zM1.006 17.62l-.491-.091.491.091zm.246.375l.09-.491-.09.491zm.395-.248l.477.151-.477-.151zm.041-.208l-.495-.07.495.07zm.02-.12l-.491-.097.49.097zm8.944-6.292l-.075.494.075-.494zm6.52 5.729l-.478.146.478-.146zm.102.452l-.49.093.49-.093zm.095.424l-.48.14.48-.14zm.41.237l-.1-.49.1.49zm.22-.31l.5.012-.5-.012zm-.018-.256l.49-.102-.49.102zm-5.511-6.509l.182-.465-.182.465zm-.574-.192l.147-.478-.147.478zm-.283-.089l-.217-.45-1.123.541 1.185.385.155-.476zm2.786-5.875l-.484.127.484-.127zm-4.61-3.733l-.019.5.019-.5zM5.124 6.009l.5.008V6.01l-.5-.001zm4.068 4.373l-.032.499.032-.5zm.349-8.716l.002-.5-.002.5zm4.36 4.38l-.5.003.5-.004zm-6.29 4.118C5.31 9.06 4.534 6.614 5.165 4.658l-.952-.307a5.559 5.559 0 002.965 6.715l.433-.902zm-.038.918l.017-.007-.391-.92-.03.013.404.914zm-.081.034a.867.867 0 00.081-.034l-.404-.914-.01.004a.147.147 0 00-.005.002h.003l.335.942zm-.14.046c.046-.014.093-.03.14-.046l-.334-.943-.106.035.3.954zm-5.854 6.549c.316-1.695.964-3.068 1.927-4.145.963-1.077 2.264-1.882 3.926-2.404l-.3-.954c-1.803.567-3.269 1.458-4.372 2.691C1.577 14.133.86 15.682.515 17.529l.983.183zm-.156-.208a.19.19 0 01.156.208l-.983-.183a.812.812 0 00.647.958l.18-.983zm-.171.091a.113.113 0 01.02-.035.165.165 0 01.049-.04.152.152 0 01.102-.016l-.18.983a.844.844 0 00.962-.589l-.953-.303zm.022-.125a.853.853 0 01-.022.125l.953.303c.036-.114.05-.226.06-.29l-.99-.138zm.024-.148c-.011.056-.019.11-.024.148l.99.139c.006-.043.01-.07.015-.094l-.981-.193zm9.51-6.69c-4.703-.715-8.678 2.466-9.51 6.69l.981.193c.735-3.733 4.24-6.523 8.38-5.894l.15-.989zm6.923 6.077c-.517-1.684-1.35-3.073-2.517-4.11-1.168-1.037-2.643-1.699-4.405-1.967l-.15.989c1.596.243 2.886.833 3.89 1.726 1.007.894 1.753 2.114 2.226 3.655l.956-.293zm.116.506c-.028-.147-.062-.327-.116-.506l-.956.294c.035.116.06.241.09.398l.982-.186zm.083.377a4.088 4.088 0 01-.083-.377l-.983.186c.026.138.057.305.106.47l.96-.279zm-.17-.113a.123.123 0 01.08.013.19.19 0 01.06.048.15.15 0 01.03.052l-.96.28c.07.24.229.42.43.519a.88.88 0 00.561.068l-.202-.98zm-.18.169c0 .044-.009.002.034-.06a.285.285 0 01.086-.083.196.196 0 01.06-.026l.201.98a.748.748 0 00.481-.311.876.876 0 00.138-.477l-1-.023zm-.008-.143c.007.031.01.062.009.143l1 .023a1.604 1.604 0 00-.03-.37l-.979.204zm-5.204-6.145c2.867 1.124 4.584 3.164 5.204 6.145l.98-.204c-.69-3.313-2.638-5.625-5.819-6.872l-.365.93zm-.538-.18c.2.062.373.115.538.18l.365-.931c-.206-.081-.415-.145-.61-.205l-.293.956zm-.29-.091c.1.032.197.063.29.091l.294-.956a18.776 18.776 0 01-.276-.086l-.309.95zm2.456-6.224c.53 2.028-.366 4.26-2.52 5.298l.435.9c2.595-1.25 3.701-3.973 3.052-6.451l-.967.253zM9.77 1.504c1.865.07 3.656 1.493 4.145 3.36l.967-.253c-.6-2.29-2.765-4.02-5.074-4.107l-.038 1zM5.165 4.658C5.763 2.802 7.552 1.42 9.77 1.504l.038-1C7.13.404 4.946 2.08 4.213 4.351l.952.307zM4.625 6c-.044 2.61 2.072 4.723 4.535 4.88l.064-.997c-1.958-.125-3.634-1.817-3.6-3.866l-1-.017zm4.918-4.834c-2.72-.013-4.911 2.136-4.919 4.841l1 .003c.006-2.144 1.74-3.855 3.915-3.844l.004-1zm4.858 4.875c-.022-2.689-2.153-4.862-4.858-4.875l-.004 1c2.146.01 3.844 1.731 3.862 3.883l1-.008zm-5.241 4.84c3.105.198 5.261-2.34 5.241-4.84l-1 .008c.016 1.97-1.7 3.992-4.177 3.834l-.064.998z" fill="#fff"/></svg>