<svg width="37" height="32" fill="none" xmlns="http://www.w3.org/2000/svg"><path d="M34.363 4.583c0-1.108-.777-1.916-1.884-1.916H16.43c-.232 0-.356-.05-.504-.2L14.065.592 14.05.575C13.645.192 13.314 0 12.62 0H4.682c-1.14 0-2.04.858-2.04 1.917V8h31.72V4.583zM2.64 10.333h-.685c-1.058 0-2.09.425-1.942 2.025.149 1.6 1.942 17.559 1.942 17.559C2.179 31.4 2.922 32 4.02 32h29.12c1.05 0 1.735-.65 1.9-2.083 0 0 1.834-15.409 1.95-17.125.115-1.709-.736-2.459-1.95-2.459H2.641z" fill="#D3C9BE"/><g filter="url(#filter0_i)"><path d="M18.029 25.874V27h1.95v-1.126C23.027 25.786 25 24.13 25 21.482c0-2.671-1.973-4.327-5.021-4.408V16h-1.95v1.074c-3.048.088-5.029 1.744-5.029 4.4 0 2.664 1.98 4.327 5.029 4.4zm.023-1.56c-1.873-.073-3.056-1.14-3.056-2.84 0-1.685 1.182-2.759 3.056-2.832v5.672zm4.96-2.832c0 1.677-1.183 2.751-3.049 2.832v-5.672c1.866.066 3.049 1.14 3.049 2.84z" fill="#ABA297"/></g><defs><filter id="filter0_i" x="13" y="16" width="12" height="12" filterUnits="userSpaceOnUse" color-interpolation-filters="sRGB"><feFlood flood-opacity="0" result="BackgroundImageFix"/><feBlend in="SourceGraphic" in2="BackgroundImageFix" result="shape"/><feColorMatrix in="SourceAlpha" values="0 0 0 0 0 0 0 0 0 0 0 0 0 0 0 0 0 0 127 0" result="hardAlpha"/><feOffset dy="1"/><feGaussianBlur stdDeviation=".5"/><feComposite in2="hardAlpha" operator="arithmetic" k2="-1" k3="1"/><feColorMatrix values="0 0 0 0 0 0 0 0 0 0 0 0 0 0 0 0 0 0 0.25 0"/><feBlend in2="shape" result="effect1_innerShadow"/></filter></defs></svg>