<svg width="15" height="16" fill="none" xmlns="http://www.w3.org/2000/svg"><path fill-rule="evenodd" clip-rule="evenodd" d="M1.972 14.573V1.956h4.153a.483.483 0 00.485-.478A.483.483 0 006.125 1h-4.64A.483.483 0 001 1.478v13.574c0 .262.219.477.486.477h4.639a.483.483 0 00.485-.477.483.483 0 00-.485-.479H1.972zm9.253-9.272l2.648 2.63c.17.19.17.477 0 .668l-2.648 2.629a.483.483 0 01-.34.143.483.483 0 01-.34-.143c-.194-.167-.194-.478 0-.67l1.822-1.815H4.959a.483.483 0 01-.486-.478c0-.263.219-.478.486-.478h7.408L10.545 5.97a.457.457 0 010-.67.475.475 0 01.68 0z" fill="#fff"/><path d="M1.972 1.956v-.35h-.35v.35h.35zm0 12.617h-.35v.35h.35v-.35zm11.9-6.643l.262-.232-.007-.009-.008-.007-.246.248zm-2.647-2.629l.247-.248-.001-.001-.246.25zM13.873 8.6l.246.249.008-.008.007-.008-.261-.233zm-2.648 2.629l.246.25v-.002l-.246-.248zm-.68 0l.245-.25-.008-.008-.009-.007-.228.265zm0-.67l.246.25.001-.001-.247-.248zm1.822-1.815l.247.248.6-.598h-.847v.35zm0-.956v.35h.846l-.6-.598-.246.248zM10.545 5.97l.247-.248-.002-.002-.245.25zm0-.67l.245.25-.245-.25zM1.622 1.956v12.617h.7V1.956h-.7zm4.503-.35H1.972v.7h4.153v-.7zm.135-.128a.133.133 0 01-.135.128v.7a.833.833 0 00.835-.828h-.7zm-.135-.128c.079 0 .135.064.135.128h.7A.833.833 0 006.125.65v.7zm-4.64 0h4.64v-.7h-4.64v.7zm-.135.128c0-.064.057-.128.136-.128v-.7a.833.833 0 00-.836.828h.7zm0 13.574V1.478h-.7v13.574h.7zm.136.127a.133.133 0 01-.136-.127h-.7c0 .461.38.827.836.827v-.7zm4.639 0h-4.64v.7h4.64v-.7zm.135-.127a.133.133 0 01-.135.127v.7a.833.833 0 00.835-.827h-.7zm-.135-.128c.079 0 .135.063.135.128h.7a.833.833 0 00-.835-.829v.7zm-4.153 0h4.153v-.7H1.972v.7zm12.147-7.242l-2.647-2.629-.493.497 2.647 2.629.493-.497zm.015 1.15a.853.853 0 000-1.134l-.523.465a.153.153 0 010 .204l.523.465zm-2.662 2.644l2.647-2.628-.493-.497-2.647 2.629.493.496zm-.587.245a.833.833 0 00.586-.244l-.491-.498a.134.134 0 01-.095.042v.7zm-.585-.244c.16.159.37.244.585.244v-.7a.134.134 0 01-.095-.043l-.49.5zm0-1.168c-.324.319-.35.869.017 1.184l.456-.53a.078.078 0 01-.024-.06.14.14 0 01.041-.095l-.49-.499zm1.82-1.814l-1.822 1.816.494.496 1.822-1.816-.495-.496zm-7.161.598h7.408v-.7H4.959v.7zm-.836-.828c0 .461.38.828.836.828v-.7a.133.133 0 01-.136-.128h-.7zm.836-.828a.833.833 0 00-.836.828h.7c0-.065.057-.128.136-.128v-.7zm7.408 0H4.959v.7h7.408v-.7zm-2.069-1.219l1.822 1.817.494-.496-1.822-1.816-.494.495zm.002-1.166a.807.807 0 000 1.168l.49-.499a.12.12 0 01-.04-.085.12.12 0 01.04-.085l-.49-.499zm1.17 0a.825.825 0 00-1.17 0l.49.499c.059-.057.132-.057.19 0l.49-.499z" fill="#fff"/></svg>