<svg width="12" height="9" viewBox="0 0 12 9" fill="none" xmlns="http://www.w3.org/2000/svg">
<path d="M11.1441 0.000647889C10.9301 0.00743948 10.7271 0.0973648 10.5784 0.251337C8.5365 2.29764 6.35085 4.64239 4.31084 6.71173L1.39884 4.31398C1.31735 4.23413 1.22015 4.17209 1.1134 4.13181C1.00665 4.09153 0.89269 4.0739 0.778759 4.08002C0.664828 4.08614 0.553414 4.11588 0.451594 4.16737C0.349774 4.21885 0.259772 4.29093 0.187304 4.37906C0.114836 4.46718 0.0614852 4.56942 0.0306407 4.67926C-0.000203755 4.78911 -0.00786839 4.90417 0.00813366 5.01714C0.0241357 5.1301 0.0634547 5.23851 0.123594 5.33547C0.183733 5.43243 0.263377 5.51583 0.35747 5.58036L3.85443 8.46021C4.01212 8.59066 4.21276 8.65767 4.4172 8.64816C4.62163 8.63865 4.81519 8.55331 4.96009 8.40879C7.17111 6.19303 9.57098 3.5969 11.7483 1.41486C11.8683 1.29902 11.9502 1.14947 11.9833 0.986014C12.0163 0.822561 11.9989 0.652928 11.9334 0.499577C11.8679 0.346226 11.7573 0.216403 11.6164 0.127304C11.4754 0.0382057 11.3107 -0.00596751 11.1441 0.000647889Z" fill="#DB4028"/>
</svg>
