<?xml version="1.0" encoding="UTF-8" standalone="no"?>
<svg
   xmlns:dc="http://purl.org/dc/elements/1.1/"
   xmlns:cc="http://creativecommons.org/ns#"
   xmlns:rdf="http://www.w3.org/1999/02/22-rdf-syntax-ns#"
   xmlns:svg="http://www.w3.org/2000/svg"
   xmlns="http://www.w3.org/2000/svg"
   viewBox="0 0 362.66666 217.33333"
   height="217.33333"
   width="362.66666"
   xml:space="preserve"
   id="svg2"
   version="1.1"><metadata
     id="metadata8"><rdf:RDF><cc:Work
         rdf:about=""><dc:format>image/svg+xml</dc:format><dc:type
           rdf:resource="http://purl.org/dc/dcmitype/StillImage" /></cc:Work></rdf:RDF></metadata><defs
     id="defs6"><clipPath
       id="clipPath18"
       clipPathUnits="userSpaceOnUse"><path
         id="path16"
         d="M 0,163 H 272 V 0 H 0 Z" /></clipPath></defs><g
     transform="matrix(1.3333333,0,0,-1.3333333,0,217.33333)"
     id="g10"><g
       id="g12"><g
         clip-path="url(#clipPath18)"
         id="g14"><g
           transform="translate(48.4556,27.0898)"
           id="g20"><path
             id="path22"
             style="fill:#d93043;fill-opacity:1;fill-rule:nonzero;stroke:none"
             d="m 0,0 c -9.84,11.115 -15.041,25.081 -15.041,40.391 0,14.109 5.217,27.441 14.689,37.54 8.025,8.556 18.393,13.929 29.731,15.525 h -3.281 c -27.852,0 -49.67,-23.309 -49.67,-53.065 0,-29.763 21.573,-55.237 50.182,-59.254 l 5.765,-0.552 C 19.748,-16.254 8.372,-9.456 0,0" /></g><g
           transform="translate(52.9556,39.249)"
           id="g24"><path
             id="path26"
             style="fill:#d93043;fill-opacity:1;fill-rule:nonzero;stroke:none"
             d="m 0,0 c -8.239,11.314 -11.864,25.093 -10.207,38.795 1.432,11.84 6.752,22.484 15.17,30.574 L 1.777,67.066 C -21.05,50.153 -24.912,19.196 -7.203,-4.941 4.451,-20.798 22.863,-30.265 42.05,-30.265 c 9.185,0 18.185,2.199 26.026,6.356 l 5.441,3.152 C 65.725,-23.816 57.435,-25.422 49.309,-25.422 29.627,-25.422 11.654,-16.155 0,0" /></g><g
           transform="translate(154.209,48.5518)"
           id="g28"><path
             id="path30"
             style="fill:#d93043;fill-opacity:1;fill-rule:nonzero;stroke:none"
             d="m 0,0 2.154,5.183 c -11.627,-18.196 -31.072,-29.046 -52.086,-29.047 -6.458,0 -12.964,1.024 -19.337,3.045 -26.09,8.706 -41.142,33.802 -36.508,59.031 l -1.216,-3.652 c -4.06,-12.623 -3.019,-25.883 2.931,-37.335 6.458,-12.431 17.855,-21.712 32.091,-26.136 6.275,-2.094 12.747,-3.155 19.24,-3.155 C -30.235,-32.067 -9.537,-19.48 0,0" /></g><g
           transform="translate(100.2539,34.8535)"
           id="g32"><path
             id="path34"
             style="fill:#d93043;fill-opacity:1;fill-rule:nonzero;stroke:none"
             d="m 0,0 c -20.28,0 -37.813,10.714 -46.331,27.792 l 0.9,-2.701 C -38.837,4.587 -20.284,-8.66 1.836,-8.66 c 6.067,0 12.133,0.998 18.031,2.966 13.734,4.437 24.797,12.761 32.889,24.745 H 43.827 C 36.994,11.748 27.943,6.155 17.644,2.875 11.929,0.968 5.991,0 0,0" /></g><g
           transform="translate(160.1826,101.0156)"
           id="g36"><path
             id="path38"
             style="fill:#d93043;fill-opacity:1;fill-rule:nonzero;stroke:none"
             d="m 0,0 c 0.088,-2.104 0.098,-4.217 0.029,-6.319 l 1.179,0.004 c -0.021,0.109 -0.042,0.219 -0.07,0.329 z" /></g><g
           transform="translate(135.3428,140.877)"
           id="g40"><path
             id="path42"
             style="fill:#d93043;fill-opacity:1;fill-rule:nonzero;stroke:none"
             d="m 0,0 c 11.207,-13.413 16.584,-30.038 14.843,-46.213 l 7.03,0.023 c 0.042,16.195 -6.227,31.532 -17.222,42.114 z" /></g><g
           transform="translate(141.5049,53.9043)"
           id="g44"><path
             id="path46"
             style="fill:#d93043;fill-opacity:1;fill-rule:nonzero;stroke:none"
             d="m 0,0 h -12.661 c -9.958,-7.849 -22.015,-12.169 -33.961,-12.169 -8.019,0 -15.836,1.954 -22.932,5.696 l 2.276,-1.645 c 8.627,-6.248 18.567,-9.551 28.748,-9.551 14.195,0 28.207,6.433 38.53,17.669" /></g><g
           transform="translate(98.8027,45.3574)"
           id="g48"><path
             id="path50"
             style="fill:#d93043;fill-opacity:1;fill-rule:nonzero;stroke:none"
             d="M 0,0 C 10.118,0 19.444,2.875 27.731,8.547 H 18.147 C 11.691,4 4.262,1.1 -3.652,0 Z" /></g><g
           transform="translate(139.4687,98.4243)"
           id="g52"><path
             id="path54"
             style="fill:#d93043;fill-opacity:1;fill-rule:nonzero;stroke:none"
             d="m 0,0 c 0,-1.279 -0.004,-2.533 -0.044,-3.794 l 8.81,0.028 c 0.165,1.43 0.242,2.631 0.242,3.766 0,29.763 -21.575,55.238 -50.184,59.256 l -6.271,0.571 C -34.66,56.684 -23.207,49.877 -14.861,40.39 -5.139,29.337 0,15.371 0,0" /></g><g
           transform="translate(70.9585,152.0771)"
           id="g56"><path
             id="path58"
             style="fill:#d93043;fill-opacity:1;fill-rule:nonzero;stroke:none"
             d="m 0,0 c 19.769,0 37.791,-9.266 49.444,-25.422 6.656,-9.579 10.429,-20.951 10.639,-32.052 l 7.201,0.023 c 1.197,12.379 -2.577,25.501 -10.64,36.977 C 44.994,-4.623 26.449,4.843 7.04,4.843 c -9.265,0 -18.307,-2.197 -26.149,-6.353 l -5.58,-3.238 C -16.711,-1.634 -8.251,0 0,0" /></g><g
           transform="translate(19.1543,117.356)"
           id="g60"><path
             id="path62"
             style="fill:#d93043;fill-opacity:1;fill-rule:nonzero;stroke:none"
             d="m 0,0 -2.493,-5.543 c 11.801,18.485 30.991,29.391 52.117,29.391 6.389,0 12.837,-1.019 19.166,-3.031 20.283,-6.625 34.559,-23.315 37.307,-43.588 l 2.946,0.009 C 110.972,-0.101 95.754,21.123 71.963,28.908 65.691,31.002 59.22,32.063 52.727,32.063 30.229,32.063 9.533,19.478 0,0" /></g><g
           transform="translate(73.1079,131.0503)"
           id="g64"><path
             id="path66"
             style="fill:#d93043;fill-opacity:1;fill-rule:nonzero;stroke:none"
             d="m 0,0 c 20.281,0 37.813,-10.714 46.328,-27.796 l -0.901,2.706 C 38.833,-4.586 20.193,8.66 -2.061,8.66 -8.192,8.66 -14.344,7.662 -20.347,5.693 -48.827,-3.36 -66.536,-31.685 -61.542,-60.193 l 1.494,-6.283 c -2.156,29.022 14.859,54.845 42.402,63.601 C -11.93,-0.968 -5.992,0 0,0" /></g><g
           transform="translate(34.4146,101.4277)"
           id="g68"><path
             id="path70"
             style="fill:#d93043;fill-opacity:1;fill-rule:nonzero;stroke:none"
             d="m 0,0 c 10.627,14.187 27.049,22.655 43.931,22.655 7.652,0 15.174,-1.771 22.056,-5.16 l -1.74,1.192 C 55.742,24.988 45.876,28.316 35.709,28.316 19.366,28.316 3.502,19.757 -6.727,5.42 -24.256,-18.883 -22.019,-52.307 -1.523,-72.327 L 3.88,-76.782 C -4.913,-66.578 -10.369,-54.098 -11.576,-41.29 -12.953,-26.688 -8.95,-12.41 0,0" /></g><path
           id="path72"
           style="fill:#efefef;fill-opacity:1;fill-rule:evenodd;stroke:none"
           d="M 62.668,57.962 H 269.492 V 53.677 H 62.668 Z" /><g
           transform="translate(62.668,94.6177)"
           id="g74"><path
             id="path76"
             style="fill:#efefef;fill-opacity:1;fill-rule:evenodd;stroke:none"
             d="m 0,0 h 2.853 v 7.138 h 7.609 V 0 h 2.852 V 16.184 H 10.462 V 9.519 H 2.853 v 6.665 H 0 Z" /></g><g
           transform="translate(80.2617,94.6177)"
           id="g78"><path
             id="path80"
             style="fill:#efefef;fill-opacity:1;fill-rule:evenodd;stroke:none"
             d="m 0,0 h 3.326 l 7.132,11.9 V 0 h 2.854 V 16.184 H 10.458 L 2.852,3.807 V 16.184 H 0 Z" /></g><g
           transform="translate(97.8521,94.6177)"
           id="g82"><path
             id="path84"
             style="fill:#efefef;fill-opacity:1;fill-rule:evenodd;stroke:none"
             d="m 0,0 h 2.853 l 7.608,11.9 V 0 h 2.854 V 16.184 H 10.461 L 2.853,3.807 V 16.184 H 0 Z" /></g><g
           transform="translate(86.917,72.2402)"
           id="g86"><path
             id="path88"
             style="fill:#efefef;fill-opacity:1;fill-rule:evenodd;stroke:none"
             d="m 0,0 c 0,-1.904 -1.428,-2.38 -3.329,-2.38 h -13.312 v 13.808 h 12.837 c 2.376,0 3.33,0 3.33,-1.907 0,-1.904 -0.475,-2.38 -3.33,-2.38 h -12.837 l 1.902,-4.284 h 11.41 C -0.949,2.857 0,2.383 0,0 m 8.082,0 c 0,2.383 -1.426,4.764 -5.229,5.236 3.803,0.479 4.753,2.858 4.753,5.238 0,5.713 -4.753,6.189 -10.458,6.189 H -24.725 V -7.615 h 23.297 c 5.706,0 9.51,0.951 9.51,7.615" /></g><g
           transform="translate(123.0508,77.0039)"
           id="g90"><path
             id="path92"
             style="fill:#efefef;fill-opacity:1;fill-rule:evenodd;stroke:none"
             d="m 0,0 c 0,-4.764 -0.475,-5.715 -3.802,-5.715 h -10.462 c -3.803,0 -4.277,0.951 -4.277,5.715 0,4.757 0.474,5.232 4.277,5.232 H -3.802 C -0.475,5.232 0,4.757 0,0 m 8.084,0 c 0,9.997 -1.9,12.375 -12.362,12.375 h -10.459 c -9.987,0 -11.888,-2.856 -11.888,-12.375 0,-10 1.901,-12.379 11.888,-12.379 H -4.278 C 5.707,-12.379 8.084,-10 8.084,0" /></g><g
           transform="translate(165.8437,71.2891)"
           id="g94"><path
             id="path96"
             style="fill:#efefef;fill-opacity:1;fill-rule:evenodd;stroke:none"
             d="m 0,0 h -21.396 c -3.329,0 -3.807,0 -3.807,5.715 0,5.232 0.953,5.232 3.807,5.232 H 0 c -1.428,5.714 -4.281,7.143 -10.463,7.143 h -10.933 c -9.986,0 -11.887,-4.285 -11.887,-12.375 0,-9.524 2.378,-12.379 11.887,-12.379 h 10.933 c 6.658,0 9.51,1.428 10.463,6.664" /></g><g
           transform="translate(198.6504,64.625)"
           id="g98"><path
             id="path100"
             style="fill:#efefef;fill-opacity:1;fill-rule:evenodd;stroke:none"
             d="m 0,0 -11.889,13.33 9.037,10.948 h -9.037 l -5.703,-6.667 -5.705,6.667 h -9.035 L -22.822,13.33 -34.709,0 h 9.51 L -17.115,8.568 -9.51,0 Z" /></g><g
           transform="translate(223.373,77.0039)"
           id="g102"><path
             id="path104"
             style="fill:#efefef;fill-opacity:1;fill-rule:evenodd;stroke:none"
             d="m 0,0 c 0,-4.764 -0.477,-5.715 -3.803,-5.715 h -10.461 c -3.802,0 -4.277,0.951 -4.277,5.715 0,4.757 0.475,5.232 4.277,5.232 H -3.803 C -0.477,5.232 0,4.757 0,0 m 8.082,0 c 0,9.997 -1.902,12.375 -12.359,12.375 H -14.74 c -9.983,0 -11.885,-2.856 -11.885,-12.375 0,-10 2.375,-12.379 11.885,-12.379 H -4.277 C 5.705,-12.379 8.082,-10 8.082,0" /></g><g
           transform="translate(258.0801,71.7646)"
           id="g106"><path
             id="path108"
             style="fill:#efefef;fill-opacity:1;fill-rule:evenodd;stroke:none"
             d="m 0,0 h -15.689 c 1.425,1.904 2.376,4.286 2.376,9.996 H 0 Z M 10.461,-9.996 V 0 H 7.609 v 17.139 h -23.773 c -4.277,0 -4.756,-1.903 -4.756,-4.761 V 11.426 C -20.92,3.807 -22.346,1.904 -24.244,0 h -2.381 v -9.996 h 7.607 v 2.856 h 21.87 v -2.856 z" /></g></g></g></g></svg>